<?xml version="1.0" encoding="UTF-8"?>
<svg version="1.1" xmlns="http://www.w3.org/2000/svg" width="512" height="512">
<path d="M0 0 C1.28064331 -0.00143509 1.28064331 -0.00143509 2.5871582 -0.00289917 C4.37874425 -0.00357476 6.17033283 -0.00176418 7.96191406 0.00244141 C10.68039528 0.0077985 13.39871132 0.00247515 16.1171875 -0.00390625 C17.86979203 -0.00324536 19.62239645 -0.00196397 21.375 0 C22.17526611 -0.00202423 22.97553223 -0.00404846 23.80004883 -0.00613403 C29.16442596 0.01579484 34.36397748 0.46471839 39.6875 1.1328125 C41.11471477 6.6496049 42.53880078 12.16719166 43.95996094 17.68554688 C44.44412149 19.56369989 44.92914453 21.44163077 45.41503906 23.31933594 C46.11228312 26.01439765 46.80644715 28.71023636 47.5 31.40625 C47.82810669 32.67038223 47.82810669 32.67038223 48.1628418 33.96005249 C49.6875 39.90506909 49.6875 39.90506909 49.6875 42.1328125 C50.66847656 42.35195313 51.64945312 42.57109375 52.66015625 42.796875 C66.75298791 46.05801157 79.45138326 51.0354288 91.96655273 58.32495117 C92.64016846 58.70369385 93.31378418 59.08243652 94.0078125 59.47265625 C94.59836426 59.81675537 95.18891602 60.16085449 95.79736328 60.51538086 C98.52395834 61.40604979 99.94358503 61.00430828 102.6875 60.1328125 C105.2486839 58.7754225 107.70475941 57.38332026 110.17578125 55.87890625 C110.87897995 55.45859634 111.58217865 55.03828644 112.3066864 54.60523987 C114.54195637 53.26706718 116.77098692 51.91887623 119 50.5703125 C120.51847906 49.65883658 122.03735512 48.74802169 123.55664062 47.83789062 C127.27156982 45.61049632 130.98093777 43.37410011 134.6875 41.1328125 C137.91125218 43.24749244 141.0839352 45.3287693 144.01953125 47.83203125 C144.58583252 48.31422119 145.15213379 48.79641113 145.7355957 49.29321289 C146.31784912 49.79715576 146.90010254 50.30109863 147.5 50.8203125 C148.42075317 51.61586548 148.42075317 51.61586548 149.36010742 52.42749023 C158.03237621 59.98340234 165.58509539 68.07653353 172.6875 77.1328125 C173.61949219 78.12861328 173.61949219 78.12861328 174.5703125 79.14453125 C174.93898438 79.80066406 175.30765625 80.45679687 175.6875 81.1328125 C174.36976589 85.35966567 172.07729319 89.05153175 169.80859375 92.82421875 C169.04485502 94.11128846 168.28118521 95.39839906 167.51757812 96.68554688 C166.31876334 98.69653344 165.11829773 100.70651454 163.91625977 102.71557617 C162.75108445 104.66594213 161.59207606 106.61987215 160.43359375 108.57421875 C159.89296547 109.47123253 159.89296547 109.47123253 159.34141541 110.3863678 C156.84592096 114.51781169 156.84592096 114.51781169 155.6875 119.1328125 C157.07261183 121.99047109 157.07261183 121.99047109 159.125 125.0703125 C162.76493871 131.04223861 165.47755128 137.15332193 167.9375 143.6953125 C168.25388428 144.53247803 168.57026855 145.36964355 168.89624023 146.23217773 C169.20376221 147.06692627 169.51128418 147.9016748 169.828125 148.76171875 C170.15393555 149.61241943 170.47974609 150.46312012 170.81542969 151.33959961 C171.6875 154.1328125 171.6875 154.1328125 172.09863281 157.47485352 C172.73756909 161.42456515 173.38284281 163.83770806 175.6875 167.1328125 C181.76101068 170.66992515 189.13140368 171.61350803 195.9375 172.9453125 C197.84751038 173.36258079 199.7563913 173.78505527 201.6640625 174.21289062 C206.3276221 175.2469247 211.00101091 176.20851509 215.6875 177.1328125 C216.02170181 180.2663093 216.34745618 183.40063272 216.671875 186.53515625 C216.7651709 187.40893921 216.8584668 188.28272217 216.95458984 189.1829834 C218.54417526 204.67428089 217.62090052 219.71739588 215.6875 235.1328125 C206.07300473 237.86156418 196.44077193 240.4995378 186.75 242.9453125 C185.89245117 243.16405029 185.03490234 243.38278809 184.15136719 243.6081543 C183.34989258 243.80836182 182.54841797 244.00856934 181.72265625 244.21484375 C181.0150415 244.39249268 180.30742676 244.5701416 179.57836914 244.75317383 C177.6875 245.1328125 177.6875 245.1328125 174.6875 245.1328125 C174.58445557 245.80940918 174.48141113 246.48600586 174.37524414 247.18310547 C173.27187817 253.86585435 171.58751559 259.95627969 169.125 266.2578125 C168.78291504 267.15435547 168.44083008 268.05089844 168.08837891 268.97460938 C165.37791706 275.8721917 162.13422711 282.3690939 158.30639648 288.71533203 C157.01293006 290.86426686 157.01293006 290.86426686 155.6875 294.1328125 C156.86806942 298.10475984 158.98551381 301.56286453 161.05859375 305.1328125 C161.71537109 306.2671875 162.37214844 307.4015625 163.04882812 308.5703125 C163.7408426 309.75783745 164.43290027 310.94533724 165.125 312.1328125 C165.81344893 313.32013982 166.50160273 314.50763833 167.18945312 315.6953125 C170.73013691 321.84085401 170.73013691 321.84085401 174.44262695 327.88232422 C174.85343506 328.62498535 175.26424316 329.36764648 175.6875 330.1328125 C172.60863148 340.82563966 158.29445916 351.67356128 150.6875 359.1328125 C159.9275 359.4628125 169.1675 359.7928125 178.6875 360.1328125 C179.0175 358.1528125 179.3475 356.1728125 179.6875 354.1328125 C181.09536903 349.71390871 182.7823591 345.40190235 184.4375 341.0703125 C184.86804688 339.89919922 185.29859375 338.72808594 185.7421875 337.52148438 C186.17273438 336.39162109 186.60328125 335.26175781 187.046875 334.09765625 C187.43327148 333.072771 187.81966797 332.04788574 188.21777344 330.99194336 C190.01486143 327.49598032 191.51887511 325.49400506 194.6875 323.1328125 C197.70957993 322.46869532 200.63205461 322.52872584 203.71484375 322.6015625 C204.58138077 322.59829956 205.44791779 322.59503662 206.3407135 322.5916748 C210.03418939 322.57854134 213.72644904 322.62323591 217.41967773 322.66259766 C220.12260866 322.68311598 222.82438172 322.67422926 225.52734375 322.6640625 C226.35564194 322.68368042 227.18394012 322.70329834 228.03733826 322.72351074 C234.01568967 322.69679443 236.44836536 321.33342798 240.6875 317.1328125 C244.63898874 315.15706813 249.38064457 315.70091033 253.6875 316.1328125 C257.47315751 317.8904392 259.15603928 319.38876749 261.5625 322.7578125 C263.08340225 327.32051924 263.39209836 331.37096646 262.6875 336.1328125 C260.07429161 341.26590041 257.14812759 344.3126033 251.6875 346.1328125 C245.23641511 346.67040291 242.00171014 345.8527596 236.6875 342.1328125 C236.0275 341.1428125 235.3675 340.1528125 234.6875 339.1328125 C232.21258886 338.79466502 229.97398312 338.64408911 227.4921875 338.62109375 C226.78474396 338.60314255 226.07730042 338.58519135 225.34841919 338.56669617 C223.08650697 338.51246808 220.82480716 338.47865934 218.5625 338.4453125 C217.02991827 338.41215024 215.49736462 338.3776616 213.96484375 338.34179688 C210.20588221 338.25673523 206.446985 338.18998497 202.6875 338.1328125 C202.52314453 338.71039307 202.35878906 339.28797363 202.18945312 339.88305664 C200.14610614 346.89287201 197.7382113 353.73053386 195.1875 360.5703125 C194.79691406 361.64474609 194.40632813 362.71917969 194.00390625 363.82617188 C193.62105469 364.85419922 193.23820312 365.88222656 192.84375 366.94140625 C192.50150391 367.86751709 192.15925781 368.79362793 191.80664062 369.74780273 C190.68115602 372.14633221 189.74678494 373.49088893 187.6875 375.1328125 C184.73351242 376.11747503 182.83500978 376.25409086 179.75708008 376.24633789 C178.75626907 376.24626236 177.75545807 376.24618683 176.72431946 376.24610901 C175.64611435 376.24094772 174.56790924 376.23578644 173.45703125 376.23046875 C172.35147385 376.2290538 171.24591644 376.22763885 170.1068573 376.22618103 C166.57121083 376.22057764 163.03562738 376.20802454 159.5 376.1953125 C157.10481862 376.19029794 154.70963625 376.18573496 152.31445312 376.18164062 C146.43878053 376.17060711 140.56314477 376.15386566 134.6875 376.1328125 C134.69910156 376.88304687 134.71070313 377.63328125 134.72265625 378.40625 C134.7812829 385.05618667 134.50519308 391.53286123 133.6875 398.1328125 C144.94476454 398.117943 156.20158357 398.0763735 167.4586134 398.00072193 C172.68576482 397.96643233 177.91262336 397.94133887 183.13989258 397.93725586 C188.18464381 397.93297717 193.22873414 397.90454992 198.27327919 397.85938072 C200.19774844 397.84639201 202.12229674 397.84210289 204.04680443 397.84665871 C206.74311034 397.85155497 209.43747736 397.82551677 212.13354492 397.79223633 C212.92908279 397.80086197 213.72462067 397.80948761 214.54426575 397.81837463 C218.63093789 397.73382395 220.42238833 397.35743091 223.58540344 394.67753601 C224.27909531 393.83777725 224.97278717 392.99801849 225.6875 392.1328125 C229.73235716 389.59033086 233.65441577 389.94862237 238.24609375 390.5234375 C242.66285251 391.62586049 245.41042321 394.06747107 247.8203125 397.96484375 C249.51348661 402.19777902 249.2120091 406.66477203 248.6875 411.1328125 C246.52912421 415.60944377 244.23779447 418.12221727 239.6875 420.1328125 C234.42072493 421.40073983 230.71354465 421.18046032 225.6875 419.1328125 C224.97120926 418.29305374 224.25491852 417.45329498 223.516922 416.58808899 C219.79393637 413.35740827 216.74728156 413.42296152 212.04174805 413.47338867 C211.1827037 413.46290497 210.32365936 413.45242126 209.43858337 413.44161987 C206.60842665 413.41289381 203.779495 413.41915844 200.94921875 413.42578125 C198.9833676 413.41266473 197.01752993 413.39736064 195.05171204 413.37995911 C189.88464252 413.34009099 184.71792541 413.32991747 179.55072021 413.32592773 C174.27524106 413.31659976 168.99996927 413.27918828 163.72460938 413.24414062 C153.37886716 413.17954595 143.03343147 413.14891733 132.6875 413.1328125 C132.3575 420.3928125 132.0275 427.6528125 131.6875 435.1328125 C133.29713623 435.11186523 134.90677246 435.09091797 136.56518555 435.06933594 C142.5380768 434.99692664 148.51092925 434.95100862 154.48413086 434.91308594 C157.06915817 434.89297278 159.65414 434.86567864 162.23901367 434.83105469 C165.95502955 434.78252596 169.67044378 434.75984015 173.38671875 434.7421875 C174.54209641 434.72154236 175.69747406 434.70089722 176.88786316 434.67962646 C184.79150932 434.67741698 184.79150932 434.67741698 188.76171875 436.6953125 C191.17672836 439.75203866 192.53310197 442.88494471 193.80078125 446.5234375 C194.06005905 447.22805115 194.31933685 447.93266479 194.58647156 448.65863037 C195.40563062 450.89500951 196.20301472 453.13844802 197 455.3828125 C197.55391541 456.90676802 198.10923953 458.4302123 198.66601562 459.953125 C200.02288643 463.67396822 201.36029297 467.40129084 202.6875 471.1328125 C207.13483299 471.25696498 211.5812326 471.34740707 216.02978516 471.4074707 C217.54103174 471.43252345 219.05215824 471.46657627 220.56298828 471.51000977 C222.74281501 471.5710794 224.92103262 471.59911166 227.1015625 471.62109375 C228.4107666 471.64727783 229.7199707 471.67346191 231.06884766 471.70043945 C235.77966291 470.96149427 237.2832367 469.38438873 240.6875 466.1328125 C244.402108 464.2755085 248.63343118 464.68998344 252.6875 465.1328125 C257.52608548 467.46250181 260.35781069 470.29422702 262.6875 475.1328125 C263.34408569 479.72891236 263.28089056 483.69618273 261.5 488.0078125 C258.53777889 491.48076139 255.20683263 494.8564109 250.515625 495.37109375 C244.65641357 495.53976802 241.33138265 495.08011275 236.6875 491.1328125 C236.0275 490.4728125 235.3675 489.8128125 234.6875 489.1328125 C231.80840535 488.92332438 229.01777199 488.83167348 226.13671875 488.82421875 C224.38866863 488.79905229 222.64062184 488.77365436 220.89257812 488.74804688 C218.13420518 488.71933172 215.37589011 488.69531857 212.61743164 488.67651367 C209.95688335 488.65482118 207.29702688 488.61537104 204.63671875 488.57421875 C203.40522346 488.57404503 203.40522346 488.57404503 202.14884949 488.5738678 C197.54923745 488.49459768 194.35518829 488.21313473 190.6875 485.1328125 C189.44897461 483.13085937 189.44897461 483.13085937 188.58984375 480.8515625 C188.265 480.01423584 187.94015625 479.17690918 187.60546875 478.31420898 C187.28191406 477.42934814 186.95835937 476.5444873 186.625 475.6328125 C186.28210938 474.73312744 185.93921875 473.83344238 185.5859375 472.90649414 C184.60466848 470.32063575 183.64514082 467.72749089 182.6875 465.1328125 C182.22472656 463.92496094 181.76195312 462.71710938 181.28515625 461.47265625 C178.6875 454.60412033 178.6875 454.60412033 178.6875 451.1328125 C162.8475 451.1328125 147.0075 451.1328125 130.6875 451.1328125 C130.3575 457.7328125 130.0275 464.3328125 129.6875 471.1328125 C129.3575 473.7728125 129.0275 476.4128125 128.6875 479.1328125 C134.2975 479.1328125 139.9075 479.1328125 145.6875 479.1328125 C145.6875 490.0228125 145.6875 500.9128125 145.6875 512.1328125 C56.5875 512.1328125 -32.5125 512.1328125 -124.3125 512.1328125 C-124.3125 501.2428125 -124.3125 490.3528125 -124.3125 479.1328125 C-118.7025 479.1328125 -113.0925 479.1328125 -107.3125 479.1328125 C-107.5290625 476.47798828 -107.5290625 476.47798828 -107.75 473.76953125 C-107.93756285 471.45313009 -108.12505941 469.13672356 -108.3125 466.8203125 C-108.45558594 465.06944336 -108.45558594 465.06944336 -108.6015625 463.28320312 C-108.73691406 461.60581055 -108.73691406 461.60581055 -108.875 459.89453125 C-108.95878906 458.86287842 -109.04257813 457.83122559 -109.12890625 456.76831055 C-109.25951894 454.89335846 -109.3125 453.01230844 -109.3125 451.1328125 C-125.1525 451.1328125 -140.9925 451.1328125 -157.3125 451.1328125 C-157.6425 453.1128125 -157.9725 455.0928125 -158.3125 457.1328125 C-159.76608083 461.57146403 -161.49694216 465.90450634 -163.1875 470.2578125 C-163.63480469 471.43730469 -164.08210938 472.61679687 -164.54296875 473.83203125 C-164.97996094 474.96511719 -165.41695313 476.09820312 -165.8671875 477.265625 C-166.26405762 478.29574707 -166.66092773 479.32586914 -167.06982422 480.38720703 C-168.25412728 483.00384204 -169.38849047 485.00679116 -171.3125 487.1328125 C-175.19456579 488.42683443 -178.88038002 488.26836218 -182.92578125 488.2734375 C-184.6660287 488.29176646 -186.40626344 488.31133685 -188.14648438 488.33203125 C-190.88522803 488.36098151 -193.62315398 488.38281217 -196.36206055 488.38330078 C-199.00903561 488.38664383 -201.65413333 488.42124084 -204.30078125 488.4609375 C-205.51982903 488.45033295 -205.51982903 488.45033295 -206.76350403 488.43951416 C-212.66548924 488.56522697 -215.11404537 490.00197808 -219.3125 494.1328125 C-223.027108 495.9901165 -227.25843118 495.57564156 -231.3125 495.1328125 C-236.15108548 492.80312319 -238.98281069 489.97139798 -241.3125 485.1328125 C-242.1096639 480.13833661 -241.89157893 476.33551489 -239.6875 471.7578125 C-236.44476355 468.17373537 -233.84774104 465.53746009 -228.9140625 464.75 C-223.19552409 464.49240818 -219.79771712 465.32037794 -215.3125 469.1328125 C-214.6525 469.7928125 -213.9925 470.4528125 -213.3125 471.1328125 C-210.87505103 471.30769504 -208.5531392 471.36458655 -206.1171875 471.328125 C-205.05602219 471.32388016 -205.05602219 471.32388016 -203.97341919 471.31954956 C-201.7112749 471.30834387 -199.44952485 471.28323929 -197.1875 471.2578125 C-195.65495363 471.24778317 -194.12240106 471.23865724 -192.58984375 471.23046875 C-188.83057699 471.20840336 -185.07160536 471.17387146 -181.3125 471.1328125 C-180.97516846 470.18438477 -180.63783691 469.23595703 -180.2902832 468.25878906 C-179.02939322 464.72692594 -177.74790732 461.20283052 -176.46020508 457.68066406 C-175.90674181 456.15795249 -175.35881461 454.63321644 -174.81665039 453.10644531 C-174.03433258 450.90649018 -173.23210054 448.71469173 -172.42578125 446.5234375 C-172.07076286 445.50446381 -172.07076286 445.50446381 -171.70857239 444.46490479 C-170.03489769 439.99685351 -168.60534573 437.31469089 -164.3125 435.1328125 C-160.20523021 434.59943621 -156.14719958 434.66829167 -152.01171875 434.7421875 C-150.82020706 434.74784729 -149.62869537 434.75350708 -148.40107727 434.75933838 C-144.60030731 434.78170565 -140.80048443 434.83190565 -137 434.8828125 C-134.42123758 434.90287691 -131.84246037 434.92112778 -129.26367188 434.9375 C-122.94625038 434.98157208 -116.6295357 435.05060472 -110.3125 435.1328125 C-110.6425 427.8728125 -110.9725 420.6128125 -111.3125 413.1328125 C-122.66571119 413.12794182 -134.01810842 413.14838215 -145.37114048 413.2130909 C-150.64313598 413.24213389 -155.91468716 413.2601863 -161.18676758 413.25292969 C-166.276979 413.24633096 -171.36631286 413.26885278 -176.4563427 413.31136703 C-178.39591281 413.32248852 -180.33557202 413.32320705 -182.27514839 413.31323624 C-184.99763168 413.30103722 -187.71744716 413.32618987 -190.43969727 413.35986328 C-191.63624435 413.34153191 -191.63624435 413.34153191 -192.85696411 413.3228302 C-198.28197261 413.44334224 -200.92042462 414.85693638 -204.70866299 418.74372673 C-207.04987767 420.77145646 -209.22546239 421.14159888 -212.26171875 421.30078125 C-217.43497898 420.8770666 -221.17180834 419.33200117 -224.75 415.5703125 C-227.97546626 410.53858513 -227.92024926 406.02714775 -227.3125 400.1328125 C-225.27500603 396.05782456 -223.09847683 393.59506917 -219.3125 391.1328125 C-213.21297348 389.40046398 -208.42260138 389.90021584 -202.90625 392.9296875 C-201.3125 394.1328125 -201.3125 394.1328125 -199.3125 397.1328125 C-196.504351 397.44880756 -193.91191078 397.57019173 -191.09912109 397.56518555 C-190.2502684 397.5753772 -189.40141571 397.58556885 -188.52684021 397.59606934 C-185.71314 397.62633203 -182.89977944 397.6354854 -180.0859375 397.64453125 C-178.13822283 397.66136812 -176.19051908 397.679517 -174.24282837 397.69892883 C-169.11034562 397.74654279 -163.97790717 397.77627831 -158.84527588 397.80236816 C-153.6103032 397.83211635 -148.37548338 397.87866628 -143.140625 397.92382812 C-132.8646631 398.0099908 -122.58866985 398.07727826 -112.3125 398.1328125 C-112.3846875 397.55015625 -112.456875 396.9675 -112.53125 396.3671875 C-113.29721528 389.60116084 -113.41772858 382.93759399 -113.3125 376.1328125 C-113.92780075 376.13947433 -114.5431015 376.14613617 -115.17704773 376.15299988 C-121.58469413 376.21940246 -127.99224267 376.26463365 -134.40014648 376.29760742 C-136.7911374 376.31268793 -139.18210068 376.33315527 -141.57299805 376.35913086 C-145.01097435 376.39554556 -148.44858469 376.41254649 -151.88671875 376.42578125 C-152.95460129 376.44126511 -154.02248383 376.45674896 -155.12272644 376.47270203 C-164.45560576 376.4748154 -164.45560576 376.4748154 -168.3125 373.1328125 C-169.61328125 370.953125 -169.61328125 370.953125 -170.625 368.2578125 C-171.0271875 367.21109375 -171.429375 366.164375 -171.84375 365.0859375 C-172.06804687 364.47943359 -172.29234375 363.87292969 -172.5234375 363.24804688 C-173.46034466 360.73648634 -174.43290901 358.23985002 -175.40625 355.7421875 C-178.34612458 348.1551219 -178.34612458 348.1551219 -179.73828125 344.5 C-180.04161377 343.70706543 -180.34494629 342.91413086 -180.6574707 342.09716797 C-181.3125 340.1328125 -181.3125 340.1328125 -181.3125 338.1328125 C-185.77913048 338.15227079 -190.24388359 338.20409846 -194.7097168 338.28540039 C-196.22751168 338.30853701 -197.74546613 338.32296598 -199.26342773 338.32836914 C-201.4513643 338.33769172 -203.63680687 338.37874401 -205.82421875 338.42578125 C-207.13865967 338.4414917 -208.45310059 338.45720215 -209.80737305 338.47338867 C-214.11865097 339.28447467 -215.52636254 340.83681854 -218.3125 344.1328125 C-221.93097818 346.7530898 -226.00731816 346.66472686 -230.3125 346.1328125 C-235.65990414 344.17895329 -238.76868143 341.22044963 -241.3125 336.1328125 C-242.07500806 329.29524022 -241.48244994 324.65517863 -237.3125 319.1328125 C-233.4264072 315.48224048 -229.07127019 315.63907378 -223.9765625 315.76953125 C-219.18874135 316.42241595 -216.68359151 318.76172099 -213.3125 322.1328125 C-210.36092003 322.3178876 -207.49491434 322.38546872 -204.54296875 322.37109375 C-202.74934142 322.3865162 -200.95572148 322.40282003 -199.16210938 322.41992188 C-196.33113307 322.4363682 -193.50069781 322.44531425 -190.66967773 322.43823242 C-187.93931761 322.43561051 -185.21060836 322.4637507 -182.48046875 322.49609375 C-181.63759811 322.48588699 -180.79472748 322.47568024 -179.92631531 322.46516418 C-175.77516951 322.5341117 -173.85121109 322.73803359 -170.42041016 325.25219727 C-168.12763266 328.3854474 -166.76986661 331.22140407 -165.41796875 334.859375 C-165.18088699 335.48887054 -164.94380524 336.11836609 -164.69953918 336.76693726 C-164.20514648 338.08735913 -163.71723907 339.41022601 -163.2355957 340.73535156 C-162.49769797 342.76414174 -161.73995589 344.78462982 -160.97851562 346.8046875 C-157.3125 356.65316204 -157.3125 356.65316204 -157.3125 360.1328125 C-148.0725 359.8028125 -138.8325 359.4728125 -129.3125 359.1328125 C-131.9525 356.5340625 -134.5925 353.9353125 -137.3125 351.2578125 C-147.33130977 341.24852903 -147.33130977 341.24852903 -151.5 336.4453125 C-152.11230469 335.74019531 -152.72460938 335.03507812 -153.35546875 334.30859375 C-154.3125 332.1328125 -154.3125 332.1328125 -153.84765625 329.47265625 C-151.74440127 324.89687252 -149.20042147 320.6678264 -146.5625 316.3828125 C-146.04945313 315.53976562 -145.53640625 314.69671875 -145.0078125 313.828125 C-144.49476563 312.98507812 -143.98171875 312.14203125 -143.453125 311.2734375 C-142.94330078 310.42845703 -142.43347656 309.58347656 -141.90820312 308.71289062 C-140.81377442 306.94331864 -139.67976795 305.19779803 -138.51367188 303.47460938 C-135.09372791 298.60653756 -135.09372791 298.60653756 -134.70703125 292.92578125 C-135.23683594 292.00410156 -135.76664062 291.08242188 -136.3125 290.1328125 C-136.87324219 289.07707031 -137.43398437 288.02132813 -138.01171875 286.93359375 C-138.67419083 285.77066903 -139.33696676 284.60791737 -140 283.4453125 C-146.53493326 271.5663496 -151.62091492 258.63699271 -153.3125 245.1328125 C-153.92456299 245.03629395 -154.53662598 244.93977539 -155.16723633 244.84033203 C-163.59120632 243.41871474 -171.76871589 241.25154413 -180 239.0078125 C-181.39507138 238.63109942 -182.79025307 238.25479465 -184.18554688 237.87890625 C-187.56247978 236.96823411 -190.9378966 236.05208449 -194.3125 235.1328125 C-196.36653641 218.75554008 -197.05185584 202.9718097 -195.296875 186.53515625 C-195.15548096 185.16901184 -195.15548096 185.16901184 -195.01123047 183.77526855 C-194.78156655 181.56075603 -194.54861537 179.34664481 -194.3125 177.1328125 C-193.1479126 176.97127686 -191.9833252 176.80974121 -190.78344727 176.64331055 C-169.50938688 174.3197123 -169.50938688 174.3197123 -151.66357422 164.26708984 C-148.16206198 157.6939716 -146.9940527 150.66502101 -145.91699219 143.35742188 C-145.0445508 138.70346154 -143.21086153 134.87554308 -140.9375 130.7578125 C-140.61330078 130.14147949 -140.28910156 129.52514648 -139.95507812 128.89013672 C-138.58830039 126.32633563 -137.14367262 123.88141452 -135.5234375 121.46875 C-134.13078268 119.31031112 -134.13078268 119.31031112 -134.50268555 117.39672852 C-135.63617157 114.22795677 -137.32898771 111.44399177 -139.05859375 108.57421875 C-139.61535545 107.63496803 -139.61535545 107.63496803 -140.18336487 106.67674255 C-141.36748971 104.68006012 -142.55812988 102.68737982 -143.75 100.6953125 C-144.93777972 98.70652247 -146.12399643 96.71686847 -147.30592346 94.72459412 C-148.04028952 93.4870239 -148.778029 92.25144725 -149.51963806 91.01820374 C-151.42733537 87.80649564 -153.0345618 84.64456855 -154.3125 81.1328125 C-142.61259603 65.88852585 -129.54822944 51.57247414 -113.3125 41.1328125 C-109.27381147 43.49860821 -105.23532511 45.86474852 -101.19702148 48.23120117 C-99.82468049 49.03533123 -98.45228537 49.83936892 -97.07983398 50.64331055 C-95.10125544 51.80232554 -93.12287509 52.9616782 -91.14453125 54.12109375 C-90.53599808 54.47746414 -89.9274649 54.83383453 -89.30049133 55.20100403 C-86.69732376 56.72697544 -84.13490126 58.25310669 -81.63549805 59.94604492 C-79.44588792 61.32240858 -79.44588792 61.32240858 -77.29931641 60.96362305 C-74.99245678 59.99898268 -72.75692925 58.96571656 -70.5234375 57.83984375 C-43.01805811 44.19755545 -43.01805811 44.19755545 -28.3125 42.1328125 C-28.09335938 41.10027344 -27.87421875 40.06773438 -27.6484375 39.00390625 C-24.90502426 26.28095862 -21.66864677 13.70659284 -18.3125 1.1328125 C-12.16796813 0.36168294 -6.18897325 -0.01565468 0 0 Z " fill="#69A7FE" transform="translate(245.3125,-0.1328125)"/>
<path d="M0 0 C1.28064331 -0.00143509 1.28064331 -0.00143509 2.5871582 -0.00289917 C4.37874425 -0.00357476 6.17033283 -0.00176418 7.96191406 0.00244141 C10.68039528 0.0077985 13.39871132 0.00247515 16.1171875 -0.00390625 C17.86979203 -0.00324536 19.62239645 -0.00196397 21.375 0 C22.17526611 -0.00202423 22.97553223 -0.00404846 23.80004883 -0.00613403 C29.16442596 0.01579484 34.36397748 0.46471839 39.6875 1.1328125 C41.11471477 6.6496049 42.53880078 12.16719166 43.95996094 17.68554688 C44.44412149 19.56369989 44.92914453 21.44163077 45.41503906 23.31933594 C46.11228312 26.01439765 46.80644715 28.71023636 47.5 31.40625 C47.71873779 32.24900482 47.93747559 33.09175964 48.1628418 33.96005249 C49.6875 39.90506909 49.6875 39.90506909 49.6875 42.1328125 C50.66847656 42.35195313 51.64945313 42.57109375 52.66015625 42.796875 C66.75298791 46.05801157 79.45138326 51.0354288 91.96655273 58.32495117 C92.64016846 58.70369385 93.31378418 59.08243652 94.0078125 59.47265625 C94.59836426 59.81675537 95.18891602 60.16085449 95.79736328 60.51538086 C98.52395834 61.40604979 99.94358503 61.00430828 102.6875 60.1328125 C105.2486839 58.7754225 107.70475941 57.38332026 110.17578125 55.87890625 C110.87897995 55.45859634 111.58217865 55.03828644 112.3066864 54.60523987 C114.54195637 53.26706718 116.77098692 51.91887623 119 50.5703125 C120.51847906 49.65883658 122.03735512 48.74802169 123.55664062 47.83789062 C127.27156982 45.61049632 130.98093777 43.37410011 134.6875 41.1328125 C137.91125218 43.24749244 141.0839352 45.3287693 144.01953125 47.83203125 C144.58583252 48.31422119 145.15213379 48.79641113 145.7355957 49.29321289 C146.31784912 49.79715576 146.90010254 50.30109863 147.5 50.8203125 C148.42075317 51.61586548 148.42075317 51.61586548 149.36010742 52.42749023 C158.03237621 59.98340234 165.58509539 68.07653353 172.6875 77.1328125 C173.61949219 78.12861328 173.61949219 78.12861328 174.5703125 79.14453125 C174.93898438 79.80066406 175.30765625 80.45679687 175.6875 81.1328125 C174.36976589 85.35966567 172.07729319 89.05153175 169.80859375 92.82421875 C169.04485502 94.11128846 168.28118521 95.39839906 167.51757812 96.68554688 C166.31876334 98.69653344 165.11829773 100.70651454 163.91625977 102.71557617 C162.75108445 104.66594213 161.59207606 106.61987215 160.43359375 108.57421875 C159.89296547 109.47123253 159.89296547 109.47123253 159.34141541 110.3863678 C156.84592096 114.51781169 156.84592096 114.51781169 155.6875 119.1328125 C157.07261183 121.99047109 157.07261183 121.99047109 159.125 125.0703125 C162.76493871 131.04223861 165.47755128 137.15332193 167.9375 143.6953125 C168.25388428 144.53247803 168.57026855 145.36964355 168.89624023 146.23217773 C169.20376221 147.06692627 169.51128418 147.9016748 169.828125 148.76171875 C170.15393555 149.61241943 170.47974609 150.46312012 170.81542969 151.33959961 C171.6875 154.1328125 171.6875 154.1328125 172.09863281 157.47485352 C172.73756909 161.42456515 173.38284281 163.83770806 175.6875 167.1328125 C181.76101068 170.66992515 189.13140368 171.61350803 195.9375 172.9453125 C197.84751038 173.36258079 199.7563913 173.78505527 201.6640625 174.21289062 C206.3276221 175.2469247 211.00101091 176.20851509 215.6875 177.1328125 C216.02170181 180.2663093 216.34745618 183.40063272 216.671875 186.53515625 C216.7651709 187.40893921 216.8584668 188.28272217 216.95458984 189.1829834 C218.54417526 204.67428089 217.62090052 219.71739588 215.6875 235.1328125 C206.07300473 237.86156418 196.44077193 240.4995378 186.75 242.9453125 C185.89245117 243.16405029 185.03490234 243.38278809 184.15136719 243.6081543 C183.34989258 243.80836182 182.54841797 244.00856934 181.72265625 244.21484375 C181.0150415 244.39249268 180.30742676 244.5701416 179.57836914 244.75317383 C177.6875 245.1328125 177.6875 245.1328125 174.6875 245.1328125 C174.58445557 245.80940918 174.48141113 246.48600586 174.37524414 247.18310547 C173.27187817 253.86585435 171.58751559 259.95627969 169.125 266.2578125 C168.78291504 267.15435547 168.44083008 268.05089844 168.08837891 268.97460938 C165.37791706 275.8721917 162.13422711 282.3690939 158.30639648 288.71533203 C157.01293006 290.86426686 157.01293006 290.86426686 155.6875 294.1328125 C156.86806942 298.10475984 158.98551381 301.56286453 161.05859375 305.1328125 C161.71537109 306.2671875 162.37214844 307.4015625 163.04882812 308.5703125 C163.7408426 309.75783745 164.43290027 310.94533724 165.125 312.1328125 C165.81344893 313.32013982 166.50160273 314.50763833 167.18945312 315.6953125 C170.73005266 321.84086244 170.73005266 321.84086244 174.44287109 327.88208008 C174.85359863 328.62482178 175.26432617 329.36756348 175.6875 330.1328125 C173.1711343 338.8303181 163.01479257 346.98552885 156.75 353.2578125 C156.08718018 353.92143799 155.42436035 354.58506348 154.74145508 355.26879883 C148.84930698 361.09258373 148.84930698 361.09258373 144.8671875 361.23046875 C143.77664063 361.21886719 142.68609375 361.20726562 141.5625 361.1953125 C140.46679688 361.18628906 139.37109375 361.17726563 138.2421875 361.16796875 C137.39914062 361.15636719 136.55609375 361.14476562 135.6875 361.1328125 C135.66006532 358.36190955 135.64045564 355.59128862 135.625 352.8203125 C135.61662109 352.05396484 135.60824219 351.28761719 135.59960938 350.49804688 C135.57370177 344.25431361 136.11531555 338.4268415 136.6875 332.1328125 C129.0975 332.1328125 121.5075 332.1328125 113.6875 332.1328125 C112.553125 330.0496875 111.41875 327.9665625 110.25 325.8203125 C105.74261561 317.76749704 100.33908814 310.57457136 93.6875 304.1328125 C94.794837 300.8108015 95.47198676 300.29316804 98.125 298.1953125 C117.22158534 281.81710229 129.87847488 256.57320042 134.6875 232.1328125 C134.85378906 231.45484619 135.02007812 230.77687988 135.19140625 230.07836914 C136.90564757 222.64923023 136.98487393 215.41988084 136.9375 207.8203125 C136.94523437 206.59119141 136.95296875 205.36207031 136.9609375 204.09570312 C136.92327648 186.25379437 133.16642853 169.34081303 125.6875 153.1328125 C125.25824219 152.16988281 124.82898438 151.20695313 124.38671875 150.21484375 C118.53597767 137.73875643 110.1745207 127.05501763 100.6875 117.1328125 C99.77291016 116.12347656 99.77291016 116.12347656 98.83984375 115.09375 C84.09288871 99.37618858 64.03356785 90.11311033 43.6875 84.1328125 C42.59953125 83.80410156 41.5115625 83.47539063 40.390625 83.13671875 C23.37955609 78.22606488 2.92500598 78.17925608 -14.3125 82.1328125 C-15.55386719 82.38933594 -16.79523438 82.64585938 -18.07421875 82.91015625 C-41.1678115 87.95090396 -61.21911091 100.01291626 -78.3125 116.1328125 C-78.98925781 116.74511719 -79.66601562 117.35742188 -80.36328125 117.98828125 C-99.65657455 136.12165712 -114.23236154 165.96220596 -115.47363281 192.58935547 C-115.51140859 195.99488549 -115.54364842 199.39994566 -115.55273438 202.80566406 C-115.56231993 204.96720693 -115.59333237 207.12774705 -115.625 209.2890625 C-115.73239225 223.09266496 -113.63163668 236.03342453 -108.75 249.0078125 C-108.40702881 249.93053955 -108.06405762 250.8532666 -107.71069336 251.80395508 C-102.3726662 265.67043108 -95.30636502 278.09063996 -85.3125 289.1328125 C-84.51328125 290.050625 -83.7140625 290.9684375 -82.890625 291.9140625 C-79.5619393 295.69962663 -76.45639344 299.22743103 -72.3125 302.1328125 C-73.73787857 305.36511037 -75.49477947 307.5351384 -77.9375 310.0703125 C-83.91608821 316.63803166 -88.34860387 324.20502024 -92.3125 332.1328125 C-99.9025 332.1328125 -107.4925 332.1328125 -115.3125 332.1328125 C-115.1475 334.6903125 -114.9825 337.2478125 -114.8125 339.8828125 C-114.3756128 346.97351228 -114.18927805 354.02701329 -114.3125 361.1328125 C-124.31937758 362.18353465 -124.31937758 362.18353465 -128.46875 359.99609375 C-130.57053184 358.15703464 -132.4240956 356.19131215 -134.3125 354.1328125 C-135.2652364 353.19868423 -136.22400915 352.27068801 -137.1875 351.34765625 C-142.04491262 346.67077109 -146.75565759 341.84139644 -151.1875 336.7578125 C-152.17363281 335.63246094 -152.17363281 335.63246094 -153.1796875 334.484375 C-154.3125 332.1328125 -154.3125 332.1328125 -153.8671875 329.453125 C-151.73460859 324.8986223 -149.19708025 320.66239896 -146.5625 316.3828125 C-146.04945313 315.53976562 -145.53640625 314.69671875 -145.0078125 313.828125 C-144.49476563 312.98507812 -143.98171875 312.14203125 -143.453125 311.2734375 C-142.94330078 310.42845703 -142.43347656 309.58347656 -141.90820312 308.71289062 C-140.81377442 306.94331864 -139.67976795 305.19779803 -138.51367188 303.47460938 C-135.09372791 298.60653756 -135.09372791 298.60653756 -134.70703125 292.92578125 C-135.50173828 291.54326172 -135.50173828 291.54326172 -136.3125 290.1328125 C-136.87324219 289.07707031 -137.43398437 288.02132813 -138.01171875 286.93359375 C-138.67419083 285.77066903 -139.33696676 284.60791737 -140 283.4453125 C-146.53493326 271.5663496 -151.62091492 258.63699271 -153.3125 245.1328125 C-153.92456299 245.03629395 -154.53662598 244.93977539 -155.16723633 244.84033203 C-163.59120632 243.41871474 -171.76871589 241.25154413 -180 239.0078125 C-181.39507138 238.63109942 -182.79025307 238.25479465 -184.18554688 237.87890625 C-187.56247978 236.96823411 -190.9378966 236.05208449 -194.3125 235.1328125 C-196.36653641 218.75554008 -197.05185584 202.9718097 -195.296875 186.53515625 C-195.15548096 185.16901184 -195.15548096 185.16901184 -195.01123047 183.77526855 C-194.78156655 181.56075603 -194.54861537 179.34664481 -194.3125 177.1328125 C-193.1479126 176.97127686 -191.9833252 176.80974121 -190.78344727 176.64331055 C-169.50938688 174.3197123 -169.50938688 174.3197123 -151.66357422 164.26708984 C-148.16206198 157.6939716 -146.9940527 150.66502101 -145.91699219 143.35742188 C-145.0445508 138.70346154 -143.21086153 134.87554308 -140.9375 130.7578125 C-140.61330078 130.14147949 -140.28910156 129.52514648 -139.95507812 128.89013672 C-138.58830039 126.32633563 -137.14367262 123.88141452 -135.5234375 121.46875 C-134.13078268 119.31031112 -134.13078268 119.31031112 -134.50268555 117.39672852 C-135.63617157 114.22795677 -137.32898771 111.44399177 -139.05859375 108.57421875 C-139.61535545 107.63496803 -139.61535545 107.63496803 -140.18336487 106.67674255 C-141.36748971 104.68006012 -142.55812988 102.68737982 -143.75 100.6953125 C-144.93777972 98.70652247 -146.12399643 96.71686847 -147.30592346 94.72459412 C-148.04028952 93.4870239 -148.778029 92.25144725 -149.51963806 91.01820374 C-151.42733537 87.80649564 -153.0345618 84.64456855 -154.3125 81.1328125 C-142.61259603 65.88852585 -129.54822944 51.57247414 -113.3125 41.1328125 C-109.27381147 43.49860821 -105.23532511 45.86474852 -101.19702148 48.23120117 C-99.82468049 49.03533123 -98.45228537 49.83936892 -97.07983398 50.64331055 C-95.10125544 51.80232554 -93.12287509 52.9616782 -91.14453125 54.12109375 C-90.53599808 54.47746414 -89.9274649 54.83383453 -89.30049133 55.20100403 C-86.69732376 56.72697544 -84.13490126 58.25310669 -81.63549805 59.94604492 C-79.44588792 61.32240858 -79.44588792 61.32240858 -77.29931641 60.96362305 C-74.99245678 59.99898268 -72.75692925 58.96571656 -70.5234375 57.83984375 C-43.01805811 44.19755545 -43.01805811 44.19755545 -28.3125 42.1328125 C-28.09335938 41.10027344 -27.87421875 40.06773438 -27.6484375 39.00390625 C-24.90502426 26.28095862 -21.66864677 13.70659284 -18.3125 1.1328125 C-12.16796813 0.36168294 -6.18897325 -0.01565468 0 0 Z " fill="#3D4E60" transform="translate(245.3125,-0.1328125)"/>
<path d="M0 0 C1.09441406 -0.01224609 2.18882812 -0.02449219 3.31640625 -0.03710938 C35.37433653 -0.09401694 65.29221572 14.32715116 88.125 36.1875 C88.87136719 36.87070313 89.61773437 37.55390625 90.38671875 38.2578125 C97.00566902 44.51866948 102.07996832 51.65159694 107.125 59.1875 C107.6921875 60.02023438 108.259375 60.85296875 108.84375 61.7109375 C115.47068237 72.0390821 119.66748274 83.87629653 123 95.625 C123.20310791 96.33333984 123.40621582 97.04167969 123.61547852 97.77148438 C131.76363084 128.09347053 125.87068377 162.71574571 110.6875 189.8125 C103.63730849 201.88904913 93.76628245 217.4348725 81.125 224.1875 C80.63773438 223.7028125 80.15046875 223.218125 79.6484375 222.71875 C59.50140643 203.6706479 34.64414986 200.81841037 8.125 200.1875 C8.125 199.8575 8.125 199.5275 8.125 199.1875 C9.15625 199.001875 10.1875 198.81625 11.25 198.625 C25.51506105 194.98285675 37.42083666 186.30074179 45.46875 174.0390625 C57.73942317 152.91266765 63.93634654 126.64516009 59.40234375 102.30859375 C58.48361426 99.15813272 57.41657922 96.20259641 56.125 93.1875 C55.76277344 92.3109375 55.40054688 91.434375 55.02734375 90.53125 C47.63581054 74.29493298 35.01442657 65.04570309 19.125 58.1875 C5.10596847 53.09725641 -11.10297618 53.69817919 -24.875 59.1875 C-40.85127258 66.74490345 -52.22699146 78.89336141 -58.875 95.1875 C-61.56480522 102.99553882 -62.360123 110.2088291 -62.25 118.4375 C-62.2358606 120.08383423 -62.2358606 120.08383423 -62.22143555 121.76342773 C-62.06437293 130.2491892 -61.17545924 137.98866326 -58.875 146.1875 C-58.60961426 147.17435791 -58.60961426 147.17435791 -58.33886719 148.18115234 C-53.48676538 166.03504336 -44.38790682 183.34129604 -27.84765625 192.9453125 C-22.95157881 195.45084533 -18.12108183 197.52429776 -12.875 199.1875 C-12.875 199.5175 -12.875 199.8475 -12.875 200.1875 C-13.71140015 200.20937378 -13.71140015 200.20937378 -14.56469727 200.23168945 C-40.38601281 200.98232451 -63.66596024 205.51204468 -82.875 224.1875 C-105.12936135 210.61776747 -119.18492014 181.39499435 -125.23364258 156.91137695 C-127.56089046 147.02743914 -128.31437868 137.44754331 -128.3125 127.3125 C-128.31389984 126.58816772 -128.31529968 125.86383545 -128.31674194 125.11755371 C-128.2969082 112.59297696 -126.86686542 101.12393289 -122.875 89.1875 C-122.47925781 87.97707031 -122.08351562 86.76664062 -121.67578125 85.51953125 C-114.94847703 66.81270855 -104.54317205 51.36720544 -90.875 37.1875 C-90.22015625 36.46949219 -89.5653125 35.75148437 -88.890625 35.01171875 C-66.23406703 10.85440587 -32.28186257 0.01887828 0 0 Z " fill="#D4E2F1" transform="translate(256.875,78.8125)"/>
<path d="M0 0 C12.97088381 9.60806208 21.68286712 23.98177171 24.53125 39.875 C24.8232564 43.13057555 24.86525597 46.35762932 24.84375 49.625 C24.83811035 50.53531982 24.8324707 51.44563965 24.82666016 52.38354492 C24.5538466 68.0460143 22.03012296 82.58672508 15.53125 96.875 C15.01691406 98.01582031 14.50257813 99.15664062 13.97265625 100.33203125 C6.13548366 116.17552405 -6.10665931 126.37056395 -22.46875 132.875 C-21.4271875 132.91238281 -20.385625 132.94976562 -19.3125 132.98828125 C9.67450357 134.22648816 31.11365774 142.69817564 51.59375 164 C65.53125 179.57200872 65.53125 179.57200872 65.53125 186.875 C-2.44875 186.875 -70.42875 186.875 -140.46875 186.875 C-136.56367503 175.15977508 -129.02759016 166.51263968 -120.46875 157.875 C-119.664375 157.05773437 -118.86 156.24046875 -118.03125 155.3984375 C-99.78315373 137.93068746 -76.81905297 133.89294446 -52.46875 132.875 C-53.06300781 132.6790625 -53.65726562 132.483125 -54.26953125 132.28125 C-71.64143941 126.01331424 -82.74362407 112.84853408 -91.01171875 96.8984375 C-94.7366717 88.57746567 -96.64346322 79.76879932 -98.46875 70.875 C-98.66339844 69.96492188 -98.85804688 69.05484375 -99.05859375 68.1171875 C-101.53289918 48.55839222 -100.02298923 30.3061765 -88.46875 13.875 C-65.981101 -14.77928035 -30.17770498 -20.11846998 0 0 Z " fill="#F9BA7B" transform="translate(293.46875,145.125)"/>
<path d="M0 0 C2.25673814 1.48411104 4.11772087 3.26225212 6.0234375 5.16796875 C8.97501747 5.35304385 11.84102316 5.42062497 14.79296875 5.40625 C16.58659608 5.42167245 18.38021602 5.43797628 20.17382812 5.45507812 C23.00480443 5.47152445 25.83523969 5.4804705 28.66625977 5.47338867 C31.39661989 5.47076676 34.12532914 5.49890695 36.85546875 5.53125 C38.1197747 5.51593987 38.1197747 5.51593987 39.40962219 5.50032043 C43.56076799 5.56926795 45.48472641 5.77318984 48.91552734 8.28735352 C51.20830484 11.42060365 52.56607089 14.25656032 53.91796875 17.89453125 C54.15505051 18.52402679 54.39213226 19.15352234 54.63639832 19.80209351 C55.13079102 21.12251538 55.61869843 22.44538226 56.1003418 23.77050781 C56.83823953 25.79929799 57.59598161 27.81978607 58.35742188 29.83984375 C62.0234375 39.68831829 62.0234375 39.68831829 62.0234375 43.16796875 C62.89967773 43.16273193 63.77591797 43.15749512 64.67871094 43.15209961 C67.98877648 43.13486423 71.29879303 43.12242585 74.60888672 43.11303711 C76.03044394 43.10806663 77.45199622 43.10128791 78.87353516 43.0925293 C87.63778107 43.03995619 96.29610014 43.24771813 105.0234375 44.16796875 C104.90826782 43.04684692 104.90826782 43.04684692 104.79077148 41.90307617 C103.89831921 32.98099851 103.92796196 24.121453 104.0234375 15.16796875 C108.9734375 15.16796875 113.9234375 15.16796875 119.0234375 15.16796875 C120.53133655 32.31255015 121.72507843 49.46090434 122.75 66.640625 C122.90390391 69.19031336 123.05799084 71.73999068 123.21224976 74.28965759 C123.53159225 79.57784839 123.84910923 84.8661454 124.16503906 90.15454102 C124.52908077 96.24785025 124.89664408 102.34093959 125.26602042 108.4339276 C125.62465142 114.35091428 125.98088483 120.26804341 126.3360405 126.18523979 C126.48616794 128.68309466 126.63687994 131.18091447 126.78819656 133.67869759 C126.9983924 137.15424949 127.2058655 140.62995347 127.41259766 144.10571289 C127.47491074 145.12752655 127.53722382 146.14934021 127.60142517 147.20211792 C127.65743393 148.1530986 127.71344269 149.10407928 127.77114868 150.08387756 C127.84468284 151.3105771 127.84468284 151.3105771 127.91970253 152.56205845 C128.04707175 155.76168112 128.0234375 158.96581195 128.0234375 162.16796875 C122.7434375 162.16796875 117.4634375 162.16796875 112.0234375 162.16796875 C111.68865675 158.06391539 111.35554897 153.95973822 111.0234375 149.85546875 C110.92804688 148.68822266 110.83265625 147.52097656 110.734375 146.31835938 C110.59902344 144.6409668 110.59902344 144.6409668 110.4609375 142.9296875 C110.37714844 141.89803467 110.29335937 140.86638184 110.20703125 139.8034668 C110.07641856 137.92851471 110.0234375 136.04746469 110.0234375 134.16796875 C94.1834375 134.16796875 78.3434375 134.16796875 62.0234375 134.16796875 C61.5284375 137.13796875 61.5284375 137.13796875 61.0234375 140.16796875 C59.56985667 144.60662028 57.83899534 148.93966259 56.1484375 153.29296875 C55.70113281 154.47246094 55.25382812 155.65195312 54.79296875 156.8671875 C54.35597656 158.00027344 53.91898437 159.13335937 53.46875 160.30078125 C53.07187988 161.33090332 52.67500977 162.36102539 52.26611328 163.42236328 C51.08181022 166.03899829 49.94744703 168.04194741 48.0234375 170.16796875 C44.14137171 171.46199068 40.45555748 171.30351843 36.41015625 171.30859375 C34.6699088 171.32692271 32.92967406 171.3464931 31.18945312 171.3671875 C28.45070947 171.39613776 25.71278352 171.41796842 22.97387695 171.41845703 C20.32690189 171.42180008 17.68180417 171.45639709 15.03515625 171.49609375 C13.81610847 171.4854892 13.81610847 171.4854892 12.57243347 171.47467041 C6.67044826 171.60038322 4.22189213 173.03713433 0.0234375 177.16796875 C-3.6911705 179.02527275 -7.92249368 178.61079781 -11.9765625 178.16796875 C-16.81514798 175.83827944 -19.64687319 173.00655423 -21.9765625 168.16796875 C-22.7737264 163.17349286 -22.55564143 159.37067114 -20.3515625 154.79296875 C-17.10882605 151.20889162 -14.51180354 148.57261634 -9.578125 147.78515625 C-3.85958659 147.52756443 -0.46177962 148.35553419 4.0234375 152.16796875 C4.6834375 152.82796875 5.3434375 153.48796875 6.0234375 154.16796875 C8.46088647 154.34285129 10.7827983 154.3997428 13.21875 154.36328125 C14.27991531 154.35903641 14.27991531 154.35903641 15.36251831 154.35470581 C17.6246626 154.34350012 19.88641265 154.31839554 22.1484375 154.29296875 C23.68098387 154.28293942 25.21353644 154.27381349 26.74609375 154.265625 C30.50536051 154.24355961 34.26433214 154.20902771 38.0234375 154.16796875 C38.36076904 153.21954102 38.69810059 152.27111328 39.0456543 151.29394531 C40.30654428 147.76208219 41.58803018 144.23798677 42.87573242 140.71582031 C43.42919569 139.19310874 43.97712289 137.66837269 44.51928711 136.14160156 C45.30160492 133.94164643 46.10383696 131.74984798 46.91015625 129.55859375 C47.26517464 128.53962006 47.26517464 128.53962006 47.62736511 127.50006104 C49.30103981 123.03200976 50.73059177 120.34984714 55.0234375 118.16796875 C59.13070729 117.63459246 63.18873792 117.70344792 67.32421875 117.77734375 C68.51573044 117.78300354 69.70724213 117.78866333 70.93486023 117.79449463 C74.73563019 117.8168619 78.53545307 117.8670619 82.3359375 117.91796875 C84.91469992 117.93803316 87.49347713 117.95628403 90.07226562 117.97265625 C96.38968712 118.01672833 102.7064018 118.08576097 109.0234375 118.16796875 C108.6934375 110.90796875 108.3634375 103.64796875 108.0234375 96.16796875 C96.67022631 96.16309807 85.31782908 96.1835384 73.96479702 96.24824715 C68.69280152 96.27729014 63.42125034 96.29534255 58.14916992 96.28808594 C53.0589585 96.28148721 47.96962464 96.30400903 42.8795948 96.34652328 C40.94002469 96.35764477 39.00036548 96.3583633 37.06078911 96.34839249 C34.33830582 96.33619347 31.61849034 96.36134612 28.89624023 96.39501953 C27.69969315 96.37668816 27.69969315 96.37668816 26.47897339 96.35798645 C21.05396489 96.47849849 18.41551288 97.89209263 14.62727451 101.77888298 C12.28605983 103.80661271 10.11047511 104.17675513 7.07421875 104.3359375 C1.90095852 103.91222285 -1.83587084 102.36715742 -5.4140625 98.60546875 C-8.63952876 93.57374138 -8.58431176 89.062304 -7.9765625 83.16796875 C-5.93906853 79.09298081 -3.76253933 76.63022542 0.0234375 74.16796875 C6.12296402 72.43562023 10.91333612 72.93537209 16.4296875 75.96484375 C18.0234375 77.16796875 18.0234375 77.16796875 20.0234375 80.16796875 C22.8315865 80.48396381 25.42402672 80.60534798 28.23681641 80.6003418 C29.0856691 80.61053345 29.93452179 80.6207251 30.80909729 80.63122559 C33.6227975 80.66148828 36.43615806 80.67064165 39.25 80.6796875 C41.19771467 80.69652437 43.14541842 80.71467325 45.09310913 80.73408508 C50.22559188 80.78169904 55.35803033 80.81143456 60.49066162 80.83752441 C65.7256343 80.8672726 70.96045412 80.91382253 76.1953125 80.95898438 C86.4712744 81.04514705 96.74726765 81.11243451 107.0234375 81.16796875 C106.95125 80.5853125 106.8790625 80.00265625 106.8046875 79.40234375 C106.03872222 72.63631709 105.91820892 65.97275024 106.0234375 59.16796875 C105.40813675 59.17463058 104.792836 59.18129242 104.15888977 59.18815613 C97.75124337 59.25455871 91.34369483 59.2997899 84.93579102 59.33276367 C82.5448001 59.34784418 80.15383682 59.36831152 77.76293945 59.39428711 C74.32496315 59.43070181 70.88735281 59.44770274 67.44921875 59.4609375 C66.38133621 59.47642136 65.31345367 59.49190521 64.21321106 59.50785828 C54.88033174 59.50997165 54.88033174 59.50997165 51.0234375 56.16796875 C49.72265625 53.98828125 49.72265625 53.98828125 48.7109375 51.29296875 C48.10765625 49.72289062 48.10765625 49.72289062 47.4921875 48.12109375 C47.26789063 47.51458984 47.04359375 46.90808594 46.8125 46.28320312 C45.87559284 43.77164259 44.90302849 41.27500627 43.9296875 38.77734375 C40.98981292 31.19027815 40.98981292 31.19027815 39.59765625 27.53515625 C39.29432373 26.74222168 38.99099121 25.94928711 38.6784668 25.13232422 C38.0234375 23.16796875 38.0234375 23.16796875 38.0234375 21.16796875 C33.55680702 21.18742704 29.09205391 21.23925471 24.6262207 21.32055664 C23.10842582 21.34369326 21.59047137 21.35812223 20.07250977 21.36352539 C17.8845732 21.37284797 15.69913063 21.41390026 13.51171875 21.4609375 C11.54005737 21.48450317 11.54005737 21.48450317 9.52856445 21.50854492 C5.21728653 22.31963092 3.80957496 23.87197479 1.0234375 27.16796875 C-2.59504068 29.78824605 -6.67138066 29.69988311 -10.9765625 29.16796875 C-16.32396664 27.21410954 -19.43274393 24.25560588 -21.9765625 19.16796875 C-22.73907056 12.33039647 -22.14651244 7.69033488 -17.9765625 2.16796875 C-13.46098672 -2.07393577 -5.61320141 -2.36286937 0 0 Z " fill="#5F96E6" transform="translate(25.9765625,316.83203125)"/>
<path d="M0 0 C89.1 0 178.2 0 270 0 C270 10.89 270 21.78 270 33 C180.9 33 91.8 33 0 33 C0 22.11 0 11.22 0 0 Z " fill="#D4E2F1" transform="translate(121,479)"/>
<path d="M0 0 C0.74702179 -0.0065712 1.49404358 -0.0131424 2.26370239 -0.01991272 C4.73464067 -0.0396074 7.20551793 -0.05130644 9.67651367 -0.0612793 C10.52569555 -0.06535482 11.37487743 -0.06943035 12.2497921 -0.07362938 C16.75392791 -0.09448458 21.25803341 -0.10878262 25.76220703 -0.11816406 C30.37712488 -0.12916253 34.99155175 -0.16348699 39.60629749 -0.20333576 C43.18493942 -0.22971303 46.76346878 -0.23787494 50.34219933 -0.24144554 C52.0407711 -0.24626574 53.73933945 -0.25774625 55.43781471 -0.27648354 C69.43933321 -0.42121077 82.25696462 1.25185449 94.84448242 7.92700195 C95.5097998 8.27134277 96.17511719 8.61568359 96.8605957 8.97045898 C102.65761487 12.06529879 107.69498683 15.71905542 112.53198242 20.17700195 C113.36084961 20.92594727 114.1897168 21.67489258 115.04370117 22.4465332 C123.43582175 30.40169804 130.26562289 39.87325504 135.53198242 50.17700195 C135.53198242 50.83700195 135.53198242 51.49700195 135.53198242 52.17700195 C67.55198242 52.17700195 -0.42801758 52.17700195 -70.46801758 52.17700195 C-66.56294261 40.46177704 -59.02685774 31.81464163 -50.46801758 23.17700195 C-49.66364258 22.35973633 -48.85926758 21.5424707 -48.03051758 20.70043945 C-37.46618653 10.58787256 -25.34491402 5.1491357 -11.46801758 1.17700195 C-10.89646439 0.99688065 -10.32491119 0.81675934 -9.73603821 0.63117981 C-6.49971805 -0.0169029 -3.28715272 0.01261319 0 0 Z " fill="#FD3D50" transform="translate(223.468017578125,279.822998046875)"/>
<path d="M0 0 C3.96 0 7.92 0 12 0 C12 6.6 12 13.2 12 20 C97.14 20 182.28 20 270 20 C270 24.29 270 28.58 270 33 C180.9 33 91.8 33 0 33 C0 22.11 0 11.22 0 0 Z " fill="#B8CFE8" transform="translate(121,479)"/>
<path d="M0 0 C7.74117848 -0.10142562 15.48218558 -0.17147669 23.22387695 -0.21972656 C25.85740563 -0.23984098 28.49088966 -0.26713604 31.12426758 -0.30175781 C34.90978007 -0.35028088 38.694702 -0.37297112 42.48046875 -0.390625 C43.65772018 -0.41127014 44.83497162 -0.43191528 46.04789734 -0.45318604 C54.10002349 -0.45539608 54.10002349 -0.45539608 58.08789062 1.5625 C60.48818191 4.62231973 61.84746306 7.75747392 63.11328125 11.390625 C63.37255905 12.09523865 63.63183685 12.79985229 63.89897156 13.52581787 C64.71813062 15.76219701 65.51551472 18.00563552 66.3125 20.25 C66.86641541 21.77395552 67.42173953 23.2973998 67.97851562 24.8203125 C69.33538643 28.54115572 70.67279297 32.26847834 72 36 C76.44733299 36.12415248 80.8937326 36.21459457 85.34228516 36.2746582 C86.85353174 36.29971095 88.36465824 36.33376377 89.87548828 36.37719727 C92.05531501 36.4382669 94.23353262 36.46629916 96.4140625 36.48828125 C97.7232666 36.51446533 99.0324707 36.54064941 100.38134766 36.56762695 C105.09216291 35.82868177 106.5957367 34.25157623 110 31 C113.714608 29.142696 117.94593118 29.55717094 122 30 C126.83858548 32.32968931 129.67031069 35.16141452 132 40 C132.65658569 44.59609986 132.59339056 48.56337023 130.8125 52.875 C127.85027889 56.34794889 124.51933263 59.7235984 119.828125 60.23828125 C113.96891357 60.40695552 110.64388265 59.94730025 106 56 C105.34 55.34 104.68 54.68 104 54 C101.12090535 53.79051188 98.33027199 53.69886098 95.44921875 53.69140625 C93.70116863 53.66623979 91.95312184 53.64084186 90.20507812 53.61523438 C87.44670518 53.58651922 84.68839011 53.56250607 81.92993164 53.54370117 C79.26938335 53.52200868 76.60952688 53.48255854 73.94921875 53.44140625 C73.12822189 53.44129044 72.30722504 53.44117462 71.46134949 53.4410553 C66.86173745 53.36178518 63.66768829 53.08032223 60 50 C58.76147461 47.99804688 58.76147461 47.99804688 57.90234375 45.71875 C57.41507812 44.46276001 57.41507812 44.46276001 56.91796875 43.18139648 C56.59441406 42.29653564 56.27085937 41.4116748 55.9375 40.5 C55.59460938 39.60031494 55.25171875 38.70062988 54.8984375 37.77368164 C53.91716848 35.18782325 52.95764082 32.59467839 52 30 C51.53722656 28.79214844 51.07445312 27.58429688 50.59765625 26.33984375 C48 19.47130783 48 19.47130783 48 16 C47.10130943 16.00333092 47.10130943 16.00333092 46.1844635 16.00672913 C39.97202142 16.02878165 33.75959038 16.04390646 27.54711914 16.05493164 C25.22582549 16.05997333 22.90453503 16.06680651 20.58325195 16.07543945 C17.25471205 16.08751225 13.92621398 16.09322979 10.59765625 16.09765625 C9.03048607 16.10539818 9.03048607 16.10539818 7.43165588 16.11329651 C6.47073532 16.11337204 5.50981476 16.11344757 4.51977539 16.11352539 C3.66928116 16.115746 2.81878693 16.11796661 1.94252014 16.12025452 C0 16 0 16 -1 15 C-0.90913549 12.46458702 -0.7629055 9.96445216 -0.5625 7.4375 C-0.51029297 6.72658203 -0.45808594 6.01566406 -0.40429688 5.28320312 C-0.27425893 3.52178001 -0.13773103 1.76083827 0 0 Z " fill="#FEAB02" transform="translate(376,435)"/>
<path d="M0 0 C1.21370773 0.00565979 2.42741547 0.01131958 3.67790222 0.01715088 C7.54999419 0.03952058 11.42115699 0.08972118 15.29296875 0.140625 C17.9199085 0.16068909 20.54686277 0.17894001 23.17382812 0.1953125 C29.60973239 0.23938782 36.04494309 0.30842226 42.48046875 0.390625 C42.48046875 5.670625 42.48046875 10.950625 42.48046875 16.390625 C26.64046875 16.390625 10.80046875 16.390625 -5.51953125 16.390625 C-5.84953125 18.370625 -6.17953125 20.350625 -6.51953125 22.390625 C-7.97311208 26.82927653 -9.70397341 31.16231884 -11.39453125 35.515625 C-11.84183594 36.69511719 -12.28914063 37.87460937 -12.75 39.08984375 C-13.18699219 40.22292969 -13.62398438 41.35601562 -14.07421875 42.5234375 C-14.47108887 43.55355957 -14.86795898 44.58368164 -15.27685547 45.64501953 C-16.46115853 48.26165454 -17.59552172 50.26460366 -19.51953125 52.390625 C-23.40159704 53.68464693 -27.08741127 53.52617468 -31.1328125 53.53125 C-32.87305995 53.54957896 -34.61329469 53.56914935 -36.35351562 53.58984375 C-39.09225928 53.61879401 -41.83018523 53.64062467 -44.5690918 53.64111328 C-47.21606686 53.64445633 -49.86116458 53.67905334 -52.5078125 53.71875 C-53.32051102 53.7116803 -54.13320953 53.7046106 -54.97053528 53.69732666 C-60.87252049 53.82303947 -63.32107662 55.25979058 -67.51953125 59.390625 C-71.23413925 61.247929 -75.46546243 60.83345406 -79.51953125 60.390625 C-84.35811673 58.06093569 -87.18984194 55.22921048 -89.51953125 50.390625 C-90.31669515 45.39614911 -90.09861018 41.59332739 -87.89453125 37.015625 C-84.6517948 33.43154787 -82.05477229 30.79527259 -77.12109375 30.0078125 C-71.40255534 29.75022068 -68.00474837 30.57819044 -63.51953125 34.390625 C-62.85953125 35.050625 -62.19953125 35.710625 -61.51953125 36.390625 C-59.08208228 36.56550754 -56.76017045 36.62239905 -54.32421875 36.5859375 C-53.26305344 36.58169266 -53.26305344 36.58169266 -52.18045044 36.57736206 C-49.91830615 36.56615637 -47.6565561 36.54105179 -45.39453125 36.515625 C-43.86198488 36.50559567 -42.32943231 36.49646974 -40.796875 36.48828125 C-37.03760824 36.46621586 -33.27863661 36.43168396 -29.51953125 36.390625 C-29.18219971 35.44219727 -28.84486816 34.49376953 -28.49731445 33.51660156 C-27.23642447 29.98473844 -25.95493857 26.46064302 -24.66723633 22.93847656 C-24.11377306 21.41576499 -23.56584586 19.89102894 -23.02368164 18.36425781 C-22.24136383 16.16430268 -21.43913179 13.97250423 -20.6328125 11.78125 C-20.27779411 10.76227631 -20.27779411 10.76227631 -19.91560364 9.72271729 C-16.05730083 -0.57742935 -9.82944596 -0.17237635 0 0 Z " fill="#FEAB02" transform="translate(93.51953125,434.609375)"/>
<path d="M0 0 C3.78565751 1.7576267 5.46853928 3.25595499 7.875 6.625 C9.39590225 11.18770674 9.70459836 15.23815396 9 20 C6.38679161 25.13308791 3.46062759 28.1797908 -2 30 C-8.45108489 30.53759041 -11.68578986 29.7199471 -17 26 C-17.99 24.515 -17.99 24.515 -19 23 C-21.47491114 22.66185252 -23.71351688 22.51127661 -26.1953125 22.48828125 C-26.90275604 22.47033005 -27.61019958 22.45237885 -28.33908081 22.43388367 C-30.60099303 22.37965558 -32.86269284 22.34584684 -35.125 22.3125 C-36.65758173 22.27933774 -38.19013538 22.2448491 -39.72265625 22.20898438 C-43.48161779 22.12392273 -47.240515 22.05717247 -51 22 C-51.2465332 22.86637085 -51.2465332 22.86637085 -51.49804688 23.75024414 C-53.54139386 30.76005951 -55.9492887 37.59772136 -58.5 44.4375 C-58.89058594 45.51193359 -59.28117187 46.58636719 -59.68359375 47.69335938 C-60.06644531 48.72138672 -60.44929688 49.74941406 -60.84375 50.80859375 C-61.18599609 51.73470459 -61.52824219 52.66081543 -61.88085938 53.61499023 C-63.00634398 56.01351971 -63.94071506 57.35807643 -66 59 C-68.95398758 59.98466253 -70.85249022 60.12127836 -73.93041992 60.11352539 C-74.93123093 60.11344986 -75.93204193 60.11337433 -76.96318054 60.11329651 C-78.04138565 60.10813522 -79.11959076 60.10297394 -80.23046875 60.09765625 C-81.33602615 60.0962413 -82.44158356 60.09482635 -83.5806427 60.09336853 C-87.11628917 60.08776514 -90.65187262 60.07521204 -94.1875 60.0625 C-96.58268138 60.05748544 -98.97786375 60.05292246 -101.37304688 60.04882812 C-107.24872225 60.0377946 -113.12435043 60.02052767 -119 60 C-119 55.05 -119 50.1 -119 45 C-109.20036787 44.11293423 -99.51380477 43.87658128 -89.6875 43.9375 C-88.2532568 43.94253243 -86.81901185 43.94709221 -85.38476562 43.95117188 C-81.92314002 43.96202241 -78.46158178 43.9791876 -75 44 C-74.87850586 43.13576416 -74.75701172 42.27152832 -74.63183594 41.38110352 C-73.56186484 35.65543513 -71.32373329 30.3645679 -69.25 24.9375 C-68.81945312 23.76638672 -68.38890625 22.59527344 -67.9453125 21.38867188 C-67.51476562 20.25880859 -67.08421875 19.12894531 -66.640625 17.96484375 C-66.06103027 16.42751587 -66.06103027 16.42751587 -65.46972656 14.85913086 C-63.67263857 11.36316782 -62.16862489 9.36119256 -59 7 C-55.97792007 6.33588282 -53.05544539 6.39591334 -49.97265625 6.46875 C-49.10611923 6.46548706 -48.23958221 6.46222412 -47.3467865 6.4588623 C-43.65331061 6.44572884 -39.96105096 6.49042341 -36.26782227 6.52978516 C-33.56489134 6.55030348 -30.86311828 6.54141676 -28.16015625 6.53125 C-26.91770897 6.56067688 -26.91770897 6.56067688 -25.65016174 6.59069824 C-19.67181033 6.56398193 -17.23913464 5.20061548 -13 1 C-9.04851126 -0.97574437 -4.30685543 -0.43190217 0 0 Z " fill="#FEAB02" transform="translate(499,316)"/>
<path d="M0 0 C2.25673814 1.48411104 4.11772087 3.26225212 6.0234375 5.16796875 C8.97501747 5.35304385 11.84102316 5.42062497 14.79296875 5.40625 C16.58659608 5.42167245 18.38021602 5.43797628 20.17382812 5.45507812 C23.00480443 5.47152445 25.83523969 5.4804705 28.66625977 5.47338867 C31.39661989 5.47076676 34.12532914 5.49890695 36.85546875 5.53125 C38.1197747 5.51593987 38.1197747 5.51593987 39.40962219 5.50032043 C43.56076799 5.56926795 45.48472641 5.77318984 48.91552734 8.28735352 C51.20830484 11.42060365 52.56607089 14.25656032 53.91796875 17.89453125 C54.15505051 18.52402679 54.39213226 19.15352234 54.63639832 19.80209351 C55.13079102 21.12251538 55.61869843 22.44538226 56.1003418 23.77050781 C56.83823953 25.79929799 57.59598161 27.81978607 58.35742188 29.83984375 C62.0234375 39.68831829 62.0234375 39.68831829 62.0234375 43.16796875 C62.89967773 43.16273193 63.77591797 43.15749512 64.67871094 43.15209961 C67.98877648 43.13486423 71.29879303 43.12242585 74.60888672 43.11303711 C76.03044394 43.10806663 77.45199622 43.10128791 78.87353516 43.0925293 C87.63778107 43.03995619 96.29610014 43.24771813 105.0234375 44.16796875 C106.02453265 47.47867713 106.12699884 50.46881644 106.0859375 53.91796875 C106.07691406 54.9028125 106.06789062 55.88765625 106.05859375 56.90234375 C106.04119141 58.02382813 106.04119141 58.02382813 106.0234375 59.16796875 C98.9942926 59.244073 91.96525408 59.29659148 84.93579102 59.33276367 C82.5448001 59.34784418 80.15383682 59.36831152 77.76293945 59.39428711 C74.32496315 59.43070181 70.88735281 59.44770274 67.44921875 59.4609375 C66.38133621 59.47642136 65.31345367 59.49190521 64.21321106 59.50785828 C54.88033174 59.50997165 54.88033174 59.50997165 51.0234375 56.16796875 C49.72265625 53.98828125 49.72265625 53.98828125 48.7109375 51.29296875 C48.10765625 49.72289062 48.10765625 49.72289062 47.4921875 48.12109375 C47.26789063 47.51458984 47.04359375 46.90808594 46.8125 46.28320312 C45.87559284 43.77164259 44.90302849 41.27500627 43.9296875 38.77734375 C40.98981292 31.19027815 40.98981292 31.19027815 39.59765625 27.53515625 C39.29432373 26.74222168 38.99099121 25.94928711 38.6784668 25.13232422 C38.0234375 23.16796875 38.0234375 23.16796875 38.0234375 21.16796875 C33.55680702 21.18742704 29.09205391 21.23925471 24.6262207 21.32055664 C23.10842582 21.34369326 21.59047137 21.35812223 20.07250977 21.36352539 C17.8845732 21.37284797 15.69913063 21.41390026 13.51171875 21.4609375 C11.54005737 21.48450317 11.54005737 21.48450317 9.52856445 21.50854492 C5.21728653 22.31963092 3.80957496 23.87197479 1.0234375 27.16796875 C-2.59504068 29.78824605 -6.67138066 29.69988311 -10.9765625 29.16796875 C-16.32396664 27.21410954 -19.43274393 24.25560588 -21.9765625 19.16796875 C-22.73907056 12.33039647 -22.14651244 7.69033488 -17.9765625 2.16796875 C-13.46098672 -2.07393577 -5.61320141 -2.36286937 0 0 Z " fill="#FEAB02" transform="translate(25.9765625,316.83203125)"/>
<path d="M0 0 C0.74702179 -0.0065712 1.49404358 -0.0131424 2.26370239 -0.01991272 C4.73464067 -0.0396074 7.20551793 -0.05130644 9.67651367 -0.0612793 C10.52569555 -0.06535482 11.37487743 -0.06943035 12.2497921 -0.07362938 C16.75392791 -0.09448458 21.25803341 -0.10878262 25.76220703 -0.11816406 C30.37712488 -0.12916253 34.99155175 -0.16348699 39.60629749 -0.20333576 C43.18493942 -0.22971303 46.76346878 -0.23787494 50.34219933 -0.24144554 C52.0407711 -0.24626574 53.73933945 -0.25774625 55.43781471 -0.27648354 C69.44212296 -0.4212396 82.25305664 1.25526091 94.84448242 7.92700195 C95.50327393 8.26554199 96.16206543 8.60408203 96.84082031 8.95288086 C110.56444711 16.24193132 110.56444711 16.24193132 113.53198242 22.17700195 C110.93806442 21.1535834 108.36349278 20.10386104 105.80541992 18.9934082 C94.73241415 14.20306473 84.0186462 11.07306035 71.86914062 11.03173828 C70.58703201 11.02535843 69.3049234 11.01897858 67.98396301 11.0124054 C66.60023029 11.01087589 65.21649705 11.00976237 63.83276367 11.0090332 C62.39177926 11.00581334 60.95079516 11.00244874 59.5098114 10.99894714 C56.49481449 10.99297784 53.47984615 10.99110488 50.46484375 10.99169922 C46.63344158 10.99180049 42.80222619 10.97817469 38.97086811 10.96092701 C35.99455452 10.94971266 33.01828467 10.94778291 30.04195213 10.94830894 C28.63120063 10.94714197 27.2204475 10.94279385 25.80971718 10.93497658 C14.31632633 10.87726816 3.30565875 11.61960017 -7.46801758 15.86450195 C-8.14171387 16.12577881 -8.81541016 16.38705566 -9.50952148 16.65625 C-20.40233633 21.0208633 -29.0772598 27.00551485 -37.46801758 35.17700195 C-38.10481445 35.76352539 -38.74161133 36.35004883 -39.39770508 36.9543457 C-42.05778659 39.46664491 -44.1425096 41.5201906 -45.78442383 44.83325195 C-47.44159414 48.04825267 -48.58127646 49.9560949 -51.46801758 52.17700195 C-57.69815092 53.45112392 -64.1869548 52.74173287 -70.46801758 52.17700195 C-66.90261136 40.47428105 -58.91515008 31.7019055 -50.46801758 23.17700195 C-49.66364258 22.35973633 -48.85926758 21.5424707 -48.03051758 20.70043945 C-37.46618653 10.58787256 -25.34491402 5.1491357 -11.46801758 1.17700195 C-10.89646439 0.99688065 -10.32491119 0.81675934 -9.73603821 0.63117981 C-6.49971805 -0.0169029 -3.28715272 0.01261319 0 0 Z " fill="#E82F42" transform="translate(223.468017578125,279.822998046875)"/>
<path d="M0 0 C-3.3988454 1.8455647 -6.89233814 2.98598332 -10.5625 4.1875 C-27.01459109 10.0413042 -38.62538571 20.89219936 -46.25 36.5703125 C-55.19178777 57.54406469 -52.211287 83.02308392 -44.6875 104 C-37.46863428 121.1365779 -26.80800898 133.83167046 -10.08203125 142.17578125 C-4.72301376 144.29726848 0.27843145 145.26075817 6.02734375 145.4140625 C7.95610352 145.47207031 7.95610352 145.47207031 9.92382812 145.53125 C11.26171418 145.56269499 12.59960489 145.59394259 13.9375 145.625 C15.30275756 145.66324342 16.66799264 145.7022987 18.03320312 145.7421875 C21.3553354 145.83609937 24.67746741 145.92177787 28 146 C28 146.33 28 146.66 28 147 C6.55 147 -14.9 147 -37 147 C-37 146.67 -37 146.34 -37 146 C-31.06 145.67 -25.12 145.34 -19 145 C-21.1346875 144.2575 -21.1346875 144.2575 -23.3125 143.5 C-40.15058798 136.75045482 -51.57333648 122.35867758 -58.8125 106.1875 C-61.72414297 98.70185735 -63.38886828 90.85031829 -65 83 C-65.19464844 82.08992188 -65.38929688 81.17984375 -65.58984375 80.2421875 C-68.06414918 60.68339222 -66.55423923 42.4311765 -55 26 C-40.88981847 8.02048167 -22.80630371 -0.8989346 0 0 Z " fill="#F4AB67" transform="translate(260,133)"/>
<path d="M0 0 C3.73326273 2.97193396 5.81321623 5.82373638 6.42578125 10.5390625 C6.50944429 16.51260369 6.33855541 20.35992321 2.08984375 24.953125 C-1.70800576 27.92981786 -5.11759124 28.70523371 -9.91015625 28.953125 C-14.16545172 28.21945337 -16.25001668 27.72705373 -19.08073425 24.40840149 C-22.80371988 21.17772077 -25.85037469 21.24327402 -30.5559082 21.29370117 C-31.84447472 21.27797562 -31.84447472 21.27797562 -33.15907288 21.26193237 C-35.9892296 21.23320631 -38.81816125 21.23947094 -41.6484375 21.24609375 C-43.61428865 21.23297723 -45.58012632 21.21767314 -47.54594421 21.20027161 C-52.71301373 21.16040349 -57.87973084 21.15022997 -63.04693604 21.14624023 C-68.32241519 21.13691226 -73.59768698 21.09950078 -78.87304688 21.06445312 C-89.2187403 20.99985875 -99.56427882 20.9666338 -109.91015625 20.953125 C-109.91015625 16.003125 -109.91015625 11.053125 -109.91015625 5.953125 C-108.27310478 5.95098747 -108.27310478 5.95098747 -106.60298157 5.94880676 C-96.31774975 5.93213713 -86.0329136 5.88936453 -75.74789143 5.82103443 C-70.46020651 5.78674385 -65.17281114 5.76165121 -59.88500977 5.75756836 C-54.78190711 5.75328989 -49.67945788 5.72486438 -44.57655907 5.67969322 C-42.62976067 5.66670382 -40.68288414 5.66241563 -38.73604774 5.66697121 C-36.0086169 5.67186696 -33.28310336 5.64583128 -30.5559082 5.61254883 C-29.75101959 5.62117447 -28.94613098 5.62980011 -28.11685181 5.63868713 C-24.0097743 5.55467099 -22.18799575 5.18806205 -19.0065155 2.49784851 C-18.31471695 1.65808975 -17.6229184 0.81833099 -16.91015625 -0.046875 C-12.00238565 -3.13175938 -5.03833618 -2.76129672 0 0 Z " fill="#FEAA02" transform="translate(487.91015625,392.046875)"/>
<path d="M0 0 C2.0625 1.625 2.0625 1.625 4.0625 4.625 C6.90051864 4.9409709 9.52503607 5.06237436 12.36767578 5.05737305 C13.22628204 5.0675647 14.08488831 5.07775635 14.96951294 5.08825684 C17.81567801 5.11852067 20.6615073 5.12767309 23.5078125 5.13671875 C25.47794729 5.15355553 27.44807127 5.1717044 29.41818237 5.19111633 C34.60984927 5.23873122 39.80147238 5.26846615 44.99328613 5.29455566 C50.28858088 5.32430337 55.5837245 5.37085347 60.87890625 5.41601562 C71.27335864 5.50217937 81.66784202 5.56946636 92.0625 5.625 C92.0625 10.575 92.0625 15.525 92.0625 20.625 C90.43211037 20.62380661 90.43211037 20.62380661 88.76878357 20.62258911 C78.51358852 20.61898308 68.25889409 20.64682789 58.00385952 20.7052784 C52.73186402 20.73432139 47.46031284 20.7523738 42.18823242 20.74511719 C37.098021 20.73851846 32.00868714 20.76104028 26.9186573 20.80355453 C24.97908719 20.81467602 23.03942798 20.81539455 21.09985161 20.80542374 C18.37736832 20.79322472 15.65755284 20.81837737 12.93530273 20.85205078 C12.13760468 20.83982986 11.33990662 20.82760895 10.51803589 20.8150177 C5.09302739 20.93552974 2.45457538 22.34912388 -1.33366299 26.23591423 C-3.67487767 28.26364396 -5.85046239 28.63378638 -8.88671875 28.79296875 C-14.05997898 28.3692541 -17.79680834 26.82418867 -21.375 23.0625 C-24.60046626 18.03077263 -24.54524926 13.51933525 -23.9375 7.625 C-21.94662717 3.64325434 -19.77675564 0.90455803 -15.9375 -1.375 C-10.56013965 -3.09166261 -5.0593419 -2.36820259 0 0 Z " fill="#FEAA02" transform="translate(41.9375,392.375)"/>
<path d="M0 0 C1.24716797 0.00451172 2.49433594 0.00902344 3.77929688 0.01367188 C6.83208221 0.02536837 9.88476498 0.04175914 12.9375 0.0625 C12.9375 0.3925 12.9375 0.7225 12.9375 1.0625 C8.4825 1.5575 8.4825 1.5575 3.9375 2.0625 C3.70675781 3.12984375 3.47601563 4.1971875 3.23828125 5.296875 C1.36482962 13.88921427 -0.59434596 22.45836653 -2.6875 31 C-2.89334717 31.85754883 -3.09919434 32.71509766 -3.3112793 33.59863281 C-3.51019775 34.40010742 -3.70911621 35.20158203 -3.9140625 36.02734375 C-4.17437256 37.08876587 -4.17437256 37.08876587 -4.43994141 38.17163086 C-5.0625 40.0625 -5.0625 40.0625 -7.0625 43.0625 C-8.80810547 43.81103516 -8.80810547 43.81103516 -10.9296875 44.3515625 C-11.72342773 44.56627197 -12.51716797 44.78098145 -13.33496094 45.00219727 C-14.62321777 45.34142212 -14.62321777 45.34142212 -15.9375 45.6875 C-23.49721722 47.81289591 -30.65938733 50.38144504 -37.8125 53.625 C-39.02462158 54.17051514 -39.02462158 54.17051514 -40.26123047 54.72705078 C-44.8868272 56.872966 -49.13849366 59.27488491 -53.34472656 62.16137695 C-55.0625 63.0625 -55.0625 63.0625 -58.0625 62.6875 C-61.84195108 60.64029733 -65.48368329 58.44232228 -69.0625 56.0625 C-61.89243245 47.58878381 -45.41576295 44.73354729 -35.0625 42.0625 C-34.4025 42.0625 -33.7425 42.0625 -33.0625 42.0625 C-32.73378906 40.51369141 -32.73378906 40.51369141 -32.3984375 38.93359375 C-29.65502426 26.21064612 -26.41864677 13.63628034 -23.0625 1.0625 C-15.35097276 0.00601245 -7.77584179 -0.05374053 0 0 Z " fill="#334454" transform="translate(250.0625,-0.0625)"/>
<path d="M0 0 C7.04680291 3.94620963 10.37583008 8.15331414 13.125 15.75 C14.43554392 21.92528296 12.78818922 26.98450437 9.828125 32.4453125 C6.54912769 36.88248776 1.9792144 39.3228928 -2.875 41.75 C-10.00887249 42.52905004 -15.84193654 42.22664656 -21.96875 38.30859375 C-26.77538143 34.37858158 -30.25127275 28.97280205 -31.1640625 22.79296875 C-31.60032779 16.23750867 -29.65152874 11.08050707 -25.875 5.75 C-18.76957884 -1.07894563 -9.50801602 -3.85346905 0 0 Z " fill="#D3E2F2" transform="translate(264.875,385.25)"/>
<path d="M0 0 C3.75216975 2.946826 5.82563645 5.82132359 6.4375 10.53125 C6.52116304 16.50479119 6.35027416 20.35211071 2.1015625 24.9453125 C-1.69628701 27.92200536 -5.10587249 28.69742121 -9.8984375 28.9453125 C-15.41974831 27.99336236 -18.36841515 26.30592834 -21.8984375 21.9453125 C-23.75965343 16.33810501 -23.55907262 10.17495604 -21.8984375 4.5703125 C-16.64088527 -2.3302248 -7.72754716 -4.29308176 0 0 Z " fill="#FF3D4F" transform="translate(487.8984375,392.0546875)"/>
<path d="M0 0 C3.42274177 2.91939739 4.9126054 5.74165264 5.375 10.25 C5.48200747 14.7443139 5.57528327 18.91432208 3.125 22.8125 C-0.567999 26.68135609 -3.40199315 28.59443059 -8.7890625 28.9453125 C-13.97424769 28.61516962 -17.74065287 27.00501877 -21.3125 23.25 C-24.53796626 18.21827263 -24.48274926 13.70683525 -23.875 7.8125 C-21.88412717 3.83075434 -19.71425564 1.09205803 -15.875 -1.1875 C-10.53676004 -2.89167385 -5.11620027 -2.11321315 0 0 Z " fill="#FF3D4F" transform="translate(41.875,392.1875)"/>
<path d="M0 0 C4.83858548 2.32968931 7.67031069 5.16141452 10 10 C10.65658569 14.59609986 10.59339056 18.56337023 8.8125 22.875 C5.85027889 26.34794889 2.51933263 29.7235984 -2.171875 30.23828125 C-8.03108643 30.40695552 -11.35611735 29.94730025 -16 26 C-19.31613687 22.68386313 -19.17431762 19.10974947 -19.25 14.5625 C-19.19185855 10.19026302 -19.04727151 7.35199866 -16 4 C-11.05565006 -0.46197433 -6.3878869 -1.01956501 0 0 Z " fill="#69A7FE" transform="translate(498,465)"/>
<path d="M0 0 C3.78565751 1.7576267 5.46853928 3.25595499 7.875 6.625 C9.39590225 11.18770674 9.70459836 15.23815396 9 20 C6.38679161 25.13308791 3.46062759 28.1797908 -2 30 C-8.41550928 30.53462577 -11.79800755 29.87599437 -17 26 C-20.85115365 20.90653872 -20.67484461 15.12983855 -20 9 C-16.59770997 0.1162427 -8.52601609 -1.24337735 0 0 Z " fill="#69A7FE" transform="translate(499,316)"/>
<path d="M0 0 C4.43118719 2.13646525 7.2290203 4.37577522 9 9 C9.67484461 15.12983855 9.85115365 20.90653872 6 26 C0.82777443 29.85381513 -2.60497056 30.71055883 -9 30 C-14.34740414 28.04614079 -17.45618143 25.08763713 -20 20 C-20.76250806 13.16242772 -20.16994994 8.52236613 -16 3 C-11.5891859 -1.14349204 -5.70217277 -0.75359112 0 0 Z " fill="#68A7FE" transform="translate(24,316)"/>
<path d="M0 0 C4.40802625 2.16394016 7.23139226 4.38196867 9 9 C9.54434127 14.72854386 9.59242466 19.76169863 7 25 C2.06812664 29.43868602 -0.95457163 30.36172025 -7.4609375 30.27734375 C-12.50573015 29.72629717 -15.09986364 26.99488756 -18.375 23.375 C-20.57907893 18.79729761 -20.7971639 14.99447589 -20 10 C-15.84315222 1.36654692 -9.16648392 -1.47558034 0 0 Z " fill="#69A6FE" transform="translate(24,465)"/>
</svg>
